<svg xmlns:dc="http://purl.org/dc/elements/1.1/" xmlns:cc="http://creativecommons.org/ns#" xmlns:rdf="http://www.w3.org/1999/02/22-rdf-syntax-ns#" xmlns:svg="http://www.w3.org/2000/svg" xmlns="http://www.w3.org/2000/svg" viewBox="0 0 2560 1440" height="1440" width="2560" xml:space="preserve" id="svg2" version="1.1"><metadata id="metadata8" fill="#ffffff"><rdf:RDF fill="#ffffff"><cc:Work rdf:about="" fill="#ffffff"><dc:format fill="#ffffff">image/svg+xml</dc:format><dc:type rdf:resource="http://purl.org/dc/dcmitype/StillImage" fill="#ffffff"/></cc:Work></rdf:RDF></metadata><defs id="defs6" fill="#ffffff"><clipPath id="clipPath20" clipPathUnits="userSpaceOnUse" fill="#ffffff"><path id="path18" d="M 0,1080 H 1920 V 0 H 0 Z" fill="#ffffff"/></clipPath></defs><g transform="matrix(1.3333333,0,0,-1.3333333,0,1440)" id="g10"><path id="path12" style="fill:#ffffff;fill-opacity:1;fill-rule:nonzero;stroke:none" d="M 0,0.5 H 1920 V 1080 H 0 Z"/><g id="g14"><g clip-path="url(#clipPath20)" id="g16"><g transform="translate(850.3177,422.3258)" id="g22"><path id="path24" style="fill:#ba9b09;fill-opacity:1;fill-rule:nonzero;stroke:none" d="m 0,0 -5.377,-5.18 c -3.91,3.778 -8.197,6.679 -12.855,8.7 -4.661,2.019 -9.468,3.03 -14.419,3.03 -4.955,0 -9.908,-1.337 -14.86,-4.008 -4.954,-2.673 -8.815,-6.273 -11.584,-10.802 -2.771,-4.531 -4.155,-9.434 -4.155,-14.713 0,-8.212 3.08,-15.364 9.238,-21.459 6.159,-6.094 13.865,-9.139 23.12,-9.139 7.038,0 13.083,1.97 18.135,5.914 5.049,3.942 8.064,9.302 9.042,16.081 h -22.387 v 6.745 H 4.204 c -0.196,-11.143 -3.52,-19.829 -9.972,-26.052 -6.452,-6.224 -14.893,-9.337 -25.319,-9.337 -11.992,0 -21.59,3.683 -28.791,11.048 -7.201,7.363 -10.802,16.015 -10.802,25.955 0,9.938 3.584,18.541 10.754,25.809 7.168,7.265 16.585,10.899 28.252,10.899 C -20.008,13.491 -9.451,8.994 0,0"/></g><g transform="translate(929.7081,361.1793)" id="g26"><path id="path28" style="fill:#ba9b09;fill-opacity:1;fill-rule:nonzero;stroke:none" d="M 0,0 -25.863,61.436 -52.122,0 h -8.324 l 30.718,71.941 c 0.793,1.684 2.279,2.675 3.865,2.675 1.684,0 3.171,-0.991 3.865,-2.675 L 8.422,0 Z"/></g><g transform="translate(1008.99,427.0749)" id="g30"><path id="path32" style="fill:#ba9b09;fill-opacity:1;fill-rule:nonzero;stroke:none" d="m 0,0 h -27.25 v -65.896 h -7.432 V 0 h -27.25 V 7.431 H 0 Z"/></g><g transform="translate(1042.1964,427.0749)" id="g34"><path id="path36" style="fill:#ba9b09;fill-opacity:1;fill-rule:nonzero;stroke:none" d="m 0,0 v -25.466 h 45.482 v -7.433 H 0 v -25.565 h 48.455 v -7.432 H -3.072 c -2.478,0 -4.36,1.883 -4.36,4.262 V 3.172 c 0,2.377 1.882,4.259 4.36,4.259 H 48.455 V 0 Z"/></g><g transform="translate(1113.4523,367.3229)" id="g38"><path id="path40" style="fill:#ba9b09;fill-opacity:1;fill-rule:nonzero;stroke:none" d="m 0,0 3.171,6.837 c 8.621,-4.458 17.737,-6.54 27.844,-6.54 16.053,0 25.962,5.847 25.962,13.973 0,10.999 -12.089,12.683 -25.07,14.071 C 17.44,29.827 0.99,31.016 0.99,47.266 c 0,12.982 13.279,21.107 32.106,21.107 9.612,0 19.62,-2.081 27.944,-5.648 L 58.166,55.987 C 50.536,59.257 41.717,61.14 33.096,61.14 18.233,61.14 8.621,56.284 8.621,47.266 8.621,37.16 20.511,36.565 32.303,35.376 47.564,33.89 64.508,31.413 64.508,14.27 64.508,1.586 50.735,-7.135 31.015,-7.135 19.818,-7.135 9.711,-4.856 0,0"/></g><g transform="translate(747.3508,430.2482)" id="g42"><path id="path44" style="fill:#ba9b09;fill-opacity:1;fill-rule:nonzero;stroke:none" d="m 0,0 c 0,-0.693 -0.198,-1.288 -0.496,-1.882 l -30.42,-67.482 h -7.829 L -9.116,-3.368 H -48.258 V 3.963 H -3.865 C -1.684,3.963 0,2.181 0,0"/></g><g transform="translate(730.7323,310.6509)" id="g46"><path id="path48" style="fill:#ba9b09;fill-opacity:1;fill-rule:nonzero;stroke:none" d="M 0,0 C 0,2.969 -2.383,5.309 -5.393,5.309 H -18.267 V -5.476 H -5.393 C -2.383,-5.476 0,-3.009 0,0 M -6.563,19.187 H -18.267 V 8.443 h 11.704 c 2.968,0 5.392,2.384 5.392,5.393 0,2.969 -2.424,5.351 -5.392,5.351 M 3.135,0 c 0,-4.724 -3.804,-8.611 -8.528,-8.611 h -14.17 c -1.045,0 -1.84,0.795 -1.84,1.797 v 27.338 c 0,1.004 0.795,1.799 1.84,1.799 h 13 c 4.723,0 8.528,-3.805 8.528,-8.487 0,-2.841 -1.38,-5.183 -3.511,-6.646 C 1.254,5.936 3.135,3.302 3.135,0"/></g><g transform="translate(771.1951,317.7164)" id="g50"><path id="path52" style="fill:#ba9b09;fill-opacity:1;fill-rule:nonzero;stroke:none" d="m 0,0 c 0,7.19 -5.686,12.832 -12.708,12.832 -7.023,0 -12.708,-5.642 -12.708,-12.832 0.041,-7.191 5.685,-13.127 12.708,-13.127 7.064,0 12.666,5.894 12.708,13.127 m -28.509,0 c 0,8.903 7.106,15.843 15.801,15.843 8.653,0 15.801,-6.856 15.801,-15.843 0,-8.988 -7.023,-16.094 -15.801,-16.094 -8.695,0 -15.801,7.19 -15.801,16.094"/></g><g transform="translate(783.9006,315.041)" id="g54"><path id="path56" style="fill:#ba9b09;fill-opacity:1;fill-rule:nonzero;stroke:none" d="M 0,0 V 17.933 H 3.135 V 0 c 0,-5.476 4.515,-9.95 10.033,-9.95 5.517,0 9.991,4.474 9.991,9.95 v 17.933 h 3.134 V 0 c 0,-7.275 -5.894,-13.085 -13.125,-13.085 C 5.894,-13.085 0,-7.275 0,0"/></g><g transform="translate(846.3512,329.8376)" id="g58"><path id="path60" style="fill:#ba9b09;fill-opacity:1;fill-rule:nonzero;stroke:none" d="m 0,0 h -11.495 v -27.798 h -3.136 V 0 H -26.126 V 3.136 H 0 Z"/></g><g transform="translate(869.2576,329.8376)" id="g62"><path id="path64" style="fill:#ba9b09;fill-opacity:1;fill-rule:nonzero;stroke:none" d="m 0,0 v -24.663 h 9.697 v -3.135 h -22.572 v 3.135 h 9.74 V 0 h -9.74 V 3.136 H 9.697 V 0 Z"/></g><g transform="translate(903.7421,304.5895)" id="g66"><path id="path68" style="fill:#ba9b09;fill-opacity:1;fill-rule:nonzero;stroke:none" d="M 0,0 C 2.843,0 5.434,0.962 7.525,2.55 L 7.065,3.136 2.508,8.611 H 6.355 L 9.699,4.64 c 1.881,2.3 3.009,5.267 3.009,8.487 0,7.189 -5.684,12.832 -12.708,12.832 -7.022,0 -12.708,-5.643 -12.708,-12.832 C -12.666,5.936 -7.022,0 0,0 M 11.705,2.258 15.718,-2.55 H 11.83 L 9.489,0.21 C 6.856,-1.797 3.554,-2.967 0,-2.967 c -8.695,0 -15.801,7.19 -15.801,16.094 0,8.903 7.106,15.842 15.801,15.842 8.695,0 15.801,-6.939 15.801,-15.842 0,-4.223 -1.546,-8.026 -4.096,-10.869"/></g><g transform="translate(929.4487,315.041)" id="g70"><path id="path72" style="fill:#ba9b09;fill-opacity:1;fill-rule:nonzero;stroke:none" d="M 0,0 V 17.933 H 3.135 V 0 c 0,-5.476 4.515,-9.95 10.033,-9.95 5.517,0 9.991,4.474 9.991,9.95 v 17.933 h 3.134 V 0 c 0,-7.275 -5.894,-13.085 -13.125,-13.085 C 5.894,-13.085 0,-7.275 0,0"/></g><g transform="translate(971.4998,329.8376)" id="g74"><path id="path76" style="fill:#ba9b09;fill-opacity:1;fill-rule:nonzero;stroke:none" d="m 0,0 v -10.743 h 19.187 v -3.135 H 0 v -10.785 h 20.441 v -3.135 H -1.297 c -1.044,0 -1.838,0.795 -1.838,1.797 V 1.338 c 0,1.004 0.794,1.798 1.838,1.798 H 20.441 V 0 Z"/></g><g transform="translate(1049.5834,332.9738)" id="g78"><path id="path80" style="fill:#ba9b09;fill-opacity:1;fill-rule:nonzero;stroke:none" d="m 0,0 v -30.934 h -3.135 v 13.92 h -20.023 v -13.92 h -3.135 V 0 h 3.135 V -13.88 H -3.135 V 0 Z"/></g><g transform="translate(1088.5419,317.7164)" id="g82"><path id="path84" style="fill:#ba9b09;fill-opacity:1;fill-rule:nonzero;stroke:none" d="m 0,0 c 0,7.19 -5.686,12.832 -12.708,12.832 -7.023,0 -12.708,-5.642 -12.708,-12.832 0.041,-7.191 5.685,-13.127 12.708,-13.127 7.064,0 12.666,5.894 12.708,13.127 m -28.509,0 c 0,8.903 7.106,15.843 15.801,15.843 8.653,0 15.801,-6.856 15.801,-15.843 0,-8.988 -7.023,-16.094 -15.801,-16.094 -8.695,0 -15.801,7.19 -15.801,16.094"/></g><g transform="translate(1125.7008,329.8376)" id="g86"><path id="path88" style="fill:#ba9b09;fill-opacity:1;fill-rule:nonzero;stroke:none" d="M 0,0 H -11.495 V -27.798 H -14.63 V 0 H -26.126 V 3.136 H 0 Z"/></g><g transform="translate(1139.7036,329.8376)" id="g90"><path id="path92" style="fill:#ba9b09;fill-opacity:1;fill-rule:nonzero;stroke:none" d="m 0,0 v -10.743 h 19.187 v -3.135 H 0 v -10.785 h 20.441 v -3.135 H -1.296 c -1.045,0 -1.839,0.795 -1.839,1.797 V 1.338 c 0,1.004 0.794,1.798 1.839,1.798 H 20.441 V 0 Z"/></g><g transform="translate(1196.3854,305.1745)" id="g94"><path id="path96" style="fill:#ba9b09;fill-opacity:1;fill-rule:nonzero;stroke:none" d="m 0,0 v -3.135 h -21.027 c -1.045,0 -1.839,0.795 -1.839,1.797 v 29.137 h 3.135 V 0 Z"/></g><g transform="translate(1098.2244,478.725)" id="g98"><path id="path100" style="fill:#ba9b09;fill-opacity:1;fill-rule:nonzero;stroke:none" d="m 0,0 c -4.641,116.645 -6.768,236.392 -7.731,353.17 l 8.226,-8.225 c -18.928,-0.266 -56.823,-0.408 -75.733,-0.454 -69.69,-0.375 -157.797,-0.155 -227.197,0.475 0,0 8.204,8.204 8.204,8.204 -0.16,-14.886 -0.47,-51.892 -0.629,-66.219 -0.995,-64.704 -1.999,-133.812 -4.109,-198.658 -0.703,-25.067 -1.861,-63.448 -2.971,-88.293 -2.839,-2.1 -0.379,353.257 -1.338,353.17 0.002,0 0.001,0.84 0.001,0.84 l 0.842,0.001 c 75.502,0.086 227.446,0.18 302.93,0.002 0,0 0.844,-10e-4 0.844,-10e-4 L 1.338,353.17 C 0.172,352.98 2.955,-1.848 0,0"/></g><g transform="translate(1074.8647,487.0138)" id="g102"><path id="path104" style="fill:#ba9b09;fill-opacity:1;fill-rule:nonzero;stroke:none" d="m 0,0 c -2.951,66.048 -4.949,133.775 -6.147,199.925 -0.88,38.759 -1.215,81.409 -1.654,119.954 0,0 8.296,-8.295 8.296,-8.295 -58.962,-0.532 -132.376,-0.722 -191.677,-0.387 -15.888,-0.026 -47.998,0.248 -63.892,0.408 l 8.274,8.274 c -0.547,-65.056 -1.74,-134.877 -3.452,-199.924 -1.236,-38.679 -2.511,-81.479 -4.327,-119.955 0,0 -0.99,0 -0.99,0 l -0.353,319.879 -0.001,0.847 0.849,10e-4 c 63.695,0.089 191.889,0.167 255.569,0.002 0,0.001 0.851,0 0.851,0 l -0.001,-0.85 C 0.209,319.721 2.933,-1.87 0,0"/></g><g transform="translate(1050.7517,494.5492)" id="g106"><path id="path108" style="fill:#ba9b09;fill-opacity:1;fill-rule:nonzero;stroke:none" d="m 0,0 c -3.737,72.434 -5.679,145.985 -6.986,218.507 l -0.924,72.835 8.405,-8.404 c -47.867,-0.382 -107.45,-0.618 -155.59,-0.296 -17.288,0.108 -34.576,0.044 -51.864,0.318 l 8.382,8.382 c -0.745,-70.308 -2.021,-148.613 -4.774,-218.506 -0.945,-24.279 -1.734,-48.557 -3.113,-72.836 h -0.99 l -0.364,291.342 -10e-4,0.859 0.86,10e-4 c 52.161,0.079 156.168,0.154 208.317,10e-4 C 0.482,291.38 2.71,-1.107 0,0"/></g><g transform="translate(1026.6387,503.5915)" id="g110"><path id="path112" style="fill:#ba9b09;fill-opacity:1;fill-rule:nonzero;stroke:none" d="m 0,0 c -3.935,61.872 -5.782,130.953 -7.13,193.281 0,0 -0.911,64.427 -0.911,64.427 l 8.536,-8.536 c -39.466,-0.399 -118.882,-0.315 -158.339,0.024 0,-0.001 8.513,8.512 8.513,8.512 -0.65,-59.959 -2.178,-133.705 -4.721,-193.281 -0.27,-7.985 -1.064,-24.223 -1.469,-32.213 -0.485,-10.738 -1.2,-21.476 -1.828,-32.214 h -0.99 l -0.378,257.708 -10e-4,0.872 0.874,0.001 c 39.926,0.062 119.299,0.145 159.215,10e-4 C 0.478,257.537 2.735,-0.982 0,0"/></g><g transform="translate(1004.0327,512.634)" id="g114"><path id="path116" style="fill:#ba9b09;fill-opacity:1;fill-rule:nonzero;stroke:none" d="m 0,0 c -5.446,75.109 -7.207,150.984 -8.103,226.254 10e-4,0 8.598,-8.598 8.598,-8.598 l -57.268,-0.309 -57.269,0.318 8.59,8.589 c -0.38,-37.716 -1.22,-75.424 -2.344,-113.127 -1.059,-28.034 -2.126,-56.796 -3.854,-84.845 -0.507,-9.428 -1.233,-18.855 -1.897,-28.282 h -0.99 l -0.394,226.254 -0.001,0.888 0.89,0.001 c 28.549,0.052 85.995,0.125 114.537,0.002 0,10e-4 0.893,-0.001 0.893,-0.001 l -10e-4,-0.89 C 0.382,226.016 2.799,-1.819 0,0"/></g><g transform="translate(979.9197,521.6763)" id="g118"><path id="path120" style="fill:#ba9b09;fill-opacity:1;fill-rule:nonzero;stroke:none" d="m 0,0 c -4.381,47.942 -6.306,96.015 -7.429,144.113 -0.339,16.013 -0.735,32.025 -0.753,48.038 l 8.677,-8.678 c -17.102,-0.219 -51.52,-0.215 -68.617,0.009 0,0 8.669,8.669 8.669,8.669 -0.182,-32.034 -1.054,-64.059 -2.224,-96.076 C -62.975,64.004 -64.65,31.99 -67.627,0 c -2.709,-2.098 -0.541,192.236 -1.41,192.15 0.001,0.001 -10e-4,0.913 -10e-4,0.913 l 0.916,0.002 c 17.103,0.04 51.519,0.093 68.617,0.002 0,0 0.919,-0.002 0.919,-0.002 C 1.563,192.644 0.883,0.625 0.99,0 Z"/></g><g transform="translate(958.8207,529.2117)" id="g122"><path id="path124" style="fill:#ba9b09;fill-opacity:1;fill-rule:nonzero;stroke:none" d="m 0,0 c -6.214,53.799 -7.875,108.647 -8.303,162.763 0,0 8.798,-8.798 8.798,-8.798 l -13.258,-0.109 -13.258,0.118 8.788,8.789 C -17.399,129.478 -18.346,94.305 -20.343,61.036 -21.559,40.641 -23.059,20.331 -25.526,0 h -0.99 c -0.009,1.787 -0.452,161.994 -0.459,163.709 9.475,0.045 18.952,0.053 28.427,0.004 L 1.45,162.763 0.99,0 Z"/></g><g transform="translate(792.954,836.8464)" id="g126"><path id="path128" style="fill:#ba9b09;fill-opacity:1;fill-rule:nonzero;stroke:none" d="M 0,0 -18.154,18.154 H 326.974 L 309.501,0.681 Z"/></g></g></g></g></svg>